<?xml version="1.0" standalone="no"?><!DOCTYPE svg PUBLIC "-//W3C//DTD SVG 1.1//EN" "http://www.w3.org/Graphics/SVG/1.1/DTD/svg11.dtd"><svg t="1663577486003" class="icon" viewBox="0 0 1024 1024" version="1.1" xmlns="http://www.w3.org/2000/svg" p-id="208754" xmlns:xlink="http://www.w3.org/1999/xlink" width="128" height="128"><path d="M656.3 1024H367.7c-133.2 0-241.6-108.4-241.6-241.6V241.6C126.1 108.4 234.5 0 367.7 0h288.6c133.2 0 241.6 108.4 241.6 241.6v15.9c0 21.8-17.7 39.5-39.5 39.5s-39.5-17.7-39.5-39.5v-15.9c0-89.6-72.9-162.5-162.5-162.5H367.7c-89.6 0-162.5 72.9-162.5 162.5v540.8c0 89.6 72.9 162.5 162.5 162.5h288.6c89.6 0 162.5-72.9 162.5-162.5V478.6c0-21.8 17.7-39.5 39.5-39.5s39.5 17.7 39.5 39.5v303.9c0.1 133.1-108.3 241.5-241.5 241.5z" fill="#707070" p-id="208755"></path><path d="M512 856.9c-55.8 0-101.2-45.4-101.2-101.2 0-55.8 45.4-101.2 101.2-101.2s101.2 45.4 101.2 101.2c0 55.8-45.4 101.2-101.2 101.2z m0-139.1c-20.9 0-37.9 17-37.9 37.9s17 38 37.9 38 37.9-17 37.9-38c0-20.9-17-37.9-37.9-37.9z" fill="#707070" p-id="208756"></path></svg>